<mxfile host="app.diagrams.net" modified="2021-04-25T07:07:05.772Z" agent="5.0 (Macintosh; Intel Mac OS X 10_15_2) AppleWebKit/537.36 (KHTML, like Gecko) Chrome/89.0.4389.114 Safari/537.36" etag="0wuAkviiD1DBPI2O21f9" version="14.4.8" type="github">
  <diagram id="TzIycoWCumlTBYJCqYZt" name="Page-1">
    <mxGraphModel dx="893" dy="623" grid="1" gridSize="10" guides="1" tooltips="1" connect="1" arrows="1" fold="1" page="1" pageScale="1" pageWidth="827" pageHeight="1169" math="0" shadow="0">
      <root>
        <mxCell id="0" />
        <mxCell id="1" parent="0" />
        <mxCell id="sDZ_jAsvwaSz5yaz_0yO-3" value="" style="edgeStyle=orthogonalEdgeStyle;rounded=0;orthogonalLoop=1;jettySize=auto;html=1;" edge="1" parent="1" source="sDZ_jAsvwaSz5yaz_0yO-1" target="sDZ_jAsvwaSz5yaz_0yO-2">
          <mxGeometry relative="1" as="geometry" />
        </mxCell>
        <mxCell id="sDZ_jAsvwaSz5yaz_0yO-1" value="" style="rounded=0;whiteSpace=wrap;html=1;" vertex="1" parent="1">
          <mxGeometry x="170" y="90" width="120" height="60" as="geometry" />
        </mxCell>
        <mxCell id="sDZ_jAsvwaSz5yaz_0yO-5" value="" style="edgeStyle=orthogonalEdgeStyle;rounded=0;orthogonalLoop=1;jettySize=auto;html=1;" edge="1" parent="1" source="sDZ_jAsvwaSz5yaz_0yO-2" target="sDZ_jAsvwaSz5yaz_0yO-4">
          <mxGeometry relative="1" as="geometry" />
        </mxCell>
        <mxCell id="sDZ_jAsvwaSz5yaz_0yO-2" value="" style="rounded=0;whiteSpace=wrap;html=1;" vertex="1" parent="1">
          <mxGeometry x="370" y="90" width="120" height="60" as="geometry" />
        </mxCell>
        <mxCell id="sDZ_jAsvwaSz5yaz_0yO-7" value="" style="edgeStyle=orthogonalEdgeStyle;rounded=0;orthogonalLoop=1;jettySize=auto;html=1;" edge="1" parent="1" source="sDZ_jAsvwaSz5yaz_0yO-4" target="sDZ_jAsvwaSz5yaz_0yO-6">
          <mxGeometry relative="1" as="geometry" />
        </mxCell>
        <mxCell id="sDZ_jAsvwaSz5yaz_0yO-4" value="" style="rounded=0;whiteSpace=wrap;html=1;" vertex="1" parent="1">
          <mxGeometry x="370" y="230" width="120" height="60" as="geometry" />
        </mxCell>
        <mxCell id="sDZ_jAsvwaSz5yaz_0yO-6" value="" style="rounded=0;whiteSpace=wrap;html=1;" vertex="1" parent="1">
          <mxGeometry x="370" y="370" width="120" height="60" as="geometry" />
        </mxCell>
      </root>
    </mxGraphModel>
  </diagram>
</mxfile>
